# xmcd
#
# Track frame offsets: 
#        150
#        18198
#        36208
#        61879
#        79770
#        107114
#        123106
#        148638
#        175185
#        198473
#        224020
#        243766
#
# Disc length: 3443 seconds
#
# Revision: 0
# Processed by: cddbd v1.5.2PL0 Copyright (c) Steve Scherf et al.
# Submitted via: ExactAudioCopy v1.3
#
DISCID=a10d710c
DTITLE=Bob Stroger - Bob Is Back In Town
DYEAR=2006
DGENRE=Chicago Blues
TTITLE0=What Goes On In The Dark
TTITLE1=I'm A Busy Man
TTITLE2=Bob Is Back In Town
TTITLE3=Don't You Lie To Me
TTITLE4=Indigo Bunting
TTITLE5=Just A Sad Boy
TTITLE6=Something Strange
TTITLE7=Stranded In St. Louis
TTITLE8=Blind Man Blues
TTITLE9=I Gotta Move
TTITLE10=Jazz Man Blues
TTITLE11=Key To The Highway
EXTD=
EXTT0=
EXTT1=
EXTT2=
EXTT3=
EXTT4=
EXTT5=
EXTT6=
EXTT7=
EXTT8=
EXTT9=
EXTT10=
EXTT11=
PLAYORDER=
